<svg width="593" height="650" viewBox="0 0 593 650" fill="none" xmlns="http://www.w3.org/2000/svg">
<path d="M10.5807 252.803C31.6277 289.257 82.6603 307.226 118.174 286.723C155.286 265.296 161.354 215.072 176.397 189.958C191.441 164.844 218.277 155.021 242.8 151.62C267.322 148.22 317.331 171.744 355.713 149.581C391.793 128.746 402.969 78.9938 381.922 42.5394C360.875 6.08495 309.842 -11.8844 274.329 8.61946C237.217 30.046 231.149 80.2705 216.105 105.384C201.062 130.498 181.903 146.504 150.943 147.67C119.984 148.836 75.1717 123.598 36.7901 145.761C0.709508 166.596 -10.4663 216.348 10.5807 252.803Z" fill="#F2F2F2"/>
<path d="M381.934 607.13C360.887 643.584 309.855 661.553 274.341 641.049C237.229 619.623 231.161 569.399 216.118 544.285C201.074 519.171 174.238 509.348 149.715 505.947C125.193 502.547 75.184 526.071 36.8024 503.908C0.72177 483.073 -10.454 433.321 10.593 396.866C31.6399 360.412 82.6726 342.442 118.186 362.946C155.298 384.373 161.366 434.597 176.41 459.711C191.453 484.825 210.612 500.831 241.571 501.997C272.531 503.163 317.343 477.925 355.725 500.088C391.805 520.923 402.981 570.675 381.934 607.13Z" fill="#F2F2F2"/>
<path d="M509.188 551.739C551.282 551.739 592.361 516.528 592.361 475.52C592.361 432.667 551.899 402.3 537.671 376.715C523.444 351.13 528.355 322.978 537.671 300.04C546.988 277.103 592.365 245.556 592.361 201.235C592.358 159.571 554.86 125.016 512.766 125.016C470.672 125.016 429.593 160.227 429.593 201.235C429.593 244.088 470.055 274.455 484.283 300.04C498.51 325.626 502.792 350.221 488.322 377.615C473.852 405.009 429.589 431.199 429.593 475.52C429.596 517.185 467.094 551.739 509.188 551.739Z" fill="#F2F2F2"/>
</svg>
