<svg width="19" height="19" viewBox="0 0 19 19" fill="none" xmlns="http://www.w3.org/2000/svg">
<g filter="url(#filter0_f_222_588)">
<rect x="0.0751953" y="0.0749512" width="18" height="18" rx="9" fill="url(#paint0_linear_222_588)"/>
<rect x="0.187695" y="0.187451" width="17.775" height="17.775" rx="8.8875" stroke="white" stroke-opacity="0.15" stroke-width="0.225"/>
<path d="M4.32726 7.8776C4.67714 8.48362 5.5255 8.78234 6.11588 8.44148C6.73282 8.08529 6.83369 7.25037 7.08377 6.83288C7.33386 6.41538 7.77997 6.25209 8.18763 6.19556C8.59529 6.13903 9.42663 6.5301 10.0647 6.16166C10.6645 5.8153 10.8503 4.98823 10.5004 4.38222C10.1505 3.7762 9.30214 3.47748 8.71177 3.81834C8.09482 4.17453 7.99396 5.00945 7.74387 5.42694C7.49378 5.84444 7.17529 6.11051 6.66063 6.12989C6.14597 6.14928 5.40101 5.72972 4.76296 6.09816C4.16316 6.44452 3.97738 7.27159 4.32726 7.8776Z" fill="url(#paint1_linear_222_588)"/>
<path d="M10.5006 13.7679C10.1507 14.3739 9.30234 14.6726 8.71197 14.3318C8.09503 13.9756 7.99416 13.1406 7.74407 12.7232C7.49399 12.3057 7.04787 12.1424 6.64021 12.0858C6.23255 12.0293 5.40121 12.4204 4.76316 12.0519C4.16337 11.7056 3.97758 10.8785 4.32746 10.2725C4.67734 9.66648 5.5257 9.36776 6.11608 9.70862C6.73302 10.0648 6.83389 10.8997 7.08397 11.3172C7.33406 11.7347 7.65256 12.0008 8.16722 12.0202C8.68187 12.0396 9.42683 11.62 10.0649 11.9884C10.6647 12.3348 10.8505 13.1619 10.5006 13.7679Z" fill="url(#paint2_linear_222_588)"/>
<path d="M12.616 12.8471C13.3158 12.8471 13.9987 12.2617 13.9987 11.58C13.9987 10.8676 13.326 10.3628 13.0895 9.93751C12.853 9.51218 12.9347 9.04419 13.0895 8.66288C13.2444 8.28157 13.9988 7.75714 13.9987 7.02035C13.9986 6.32773 13.3753 5.7533 12.6755 5.7533C11.9757 5.7533 11.2929 6.33864 11.2929 7.02035C11.2929 7.73273 11.9655 8.23755 12.202 8.66288C12.4385 9.0882 12.5097 9.49707 12.2692 9.95247C12.0286 10.4079 11.2928 10.8432 11.2928 11.58C11.2929 12.2726 11.9163 12.8471 12.616 12.8471Z" fill="url(#paint3_linear_222_588)"/>
</g>
<defs>
<filter id="filter0_f_222_588" x="0.000195317" y="-4.88237e-05" width="18.15" height="18.15" filterUnits="userSpaceOnUse" color-interpolation-filters="sRGB">
<feFlood flood-opacity="0" result="BackgroundImageFix"/>
<feBlend mode="normal" in="SourceGraphic" in2="BackgroundImageFix" result="shape"/>
<feGaussianBlur stdDeviation="0.0375" result="effect1_foregroundBlur_222_588"/>
</filter>
<linearGradient id="paint0_linear_222_588" x1="12.9002" y1="0.0749502" x2="4.57519" y2="16.95" gradientUnits="userSpaceOnUse">
<stop stop-color="#013BDB"/>
<stop offset="0.5" stop-color="#3D6EF5"/>
<stop offset="1" stop-color="#4B7BFF"/>
</linearGradient>
<linearGradient id="paint1_linear_222_588" x1="9.07503" y1="3.67505" x2="9.07503" y2="14.475" gradientUnits="userSpaceOnUse">
<stop stop-color="white"/>
<stop offset="1" stop-color="#F5F8FF"/>
</linearGradient>
<linearGradient id="paint2_linear_222_588" x1="9.07503" y1="3.67505" x2="9.07503" y2="14.475" gradientUnits="userSpaceOnUse">
<stop stop-color="white"/>
<stop offset="1" stop-color="#F5F8FF"/>
</linearGradient>
<linearGradient id="paint3_linear_222_588" x1="9.07503" y1="3.67505" x2="9.07503" y2="14.475" gradientUnits="userSpaceOnUse">
<stop stop-color="white"/>
<stop offset="1" stop-color="#F5F8FF"/>
</linearGradient>
</defs>
</svg>
